<svg width="41" height="42" viewBox="0 0 41 42" fill="none" xmlns="http://www.w3.org/2000/svg">
<path d="M32.1914 6.97266C30.8499 6.97266 29.6991 6.12314 29.2228 4.92188H26.4258V2.46094H29.2228C29.6991 1.25967 30.8499 0.410156 32.1914 0.410156C33.9576 0.410156 35.3945 1.88213 35.3945 3.69141C35.3945 5.50069 33.9576 6.97266 32.1914 6.97266Z" fill="#1E1B1B"/>
<path d="M37.7969 13.9453C37.2704 13.9453 36.7736 13.8137 36.335 13.5822L33.3608 16.1211C33.1449 16.3054 32.8728 16.4062 32.5918 16.4062H26.4258V13.9453H32.1569L34.7646 11.7191C34.6544 11.3878 34.5938 11.0332 34.5938 10.6641C34.5938 8.85478 36.0307 7.38281 37.7969 7.38281C39.5631 7.38281 41 8.85478 41 10.6641C41 12.4733 39.5631 13.9453 37.7969 13.9453Z" fill="#1E1B1B"/>
<path d="M37.7969 24.1992C36.4553 24.1992 35.3045 23.3497 34.8283 22.1484H26.4258V19.6875H34.8283C35.3045 18.4862 36.4553 17.6367 37.7969 17.6367C39.5631 17.6367 41 19.1087 41 20.918C41 22.7272 39.5631 24.1992 37.7969 24.1992Z" fill="#1E1B1B"/>
<path d="M33.3608 25.7149L36.335 28.2539C36.7736 28.0222 37.2704 27.8906 37.7969 27.8906C39.5631 27.8906 41 29.3626 41 31.1719C41 32.9812 39.5631 34.4531 37.7969 34.4531C36.0307 34.4531 34.5938 32.9812 34.5938 31.1719C34.5938 30.8027 34.6544 30.4481 34.7646 30.1168L32.1569 27.8906H26.4258V25.4297H32.5918C32.8728 25.4297 33.1449 25.5306 33.3608 25.7149Z" fill="#1E1B1B"/>
<path d="M32.1914 34.8633C33.9576 34.8633 35.3945 36.3353 35.3945 38.1445C35.3945 39.9538 33.9576 41.4258 32.1914 41.4258C30.8499 41.4258 29.6991 40.5763 29.2228 39.375H26.4258V36.9141H29.2228C29.6991 35.7128 30.8499 34.8633 32.1914 34.8633Z" fill="#1E1B1B"/>
<path d="M12.0117 20.918C12.0117 16.1686 15.7836 12.3047 20.4199 12.3047C21.7088 12.3047 22.9306 12.6037 24.0234 13.1369V28.699C22.9306 29.2322 21.7088 29.5312 20.4199 29.5312C15.7836 29.5312 12.0117 25.6673 12.0117 20.918Z" fill="#1E1B1B"/>
<path d="M22.8223 41.8359H18.0176C17.3542 41.8359 16.8164 41.285 16.8164 40.6055V39.0038C14.5624 38.5334 12.4055 37.6181 10.4841 36.3165L9.37827 37.4493C8.90917 37.9299 8.14867 37.9299 7.67957 37.4493L4.28218 33.9691C3.81308 33.4886 3.81308 32.7095 4.28218 32.2289L5.38798 31.0961C4.11746 29.1279 3.22387 26.9183 2.7647 24.6094H1.20117C0.537805 24.6094 0 24.0585 0 23.3789V18.457C0 17.7775 0.537805 17.2266 1.20117 17.2266H2.7647C3.22387 14.9176 4.11746 12.708 5.38798 10.7398L4.2821 9.60693C4.05684 9.37617 3.93031 9.06322 3.93031 8.7369C3.93031 8.41058 4.05684 8.09772 4.2821 7.86696L7.67957 4.38662C8.14867 3.90608 8.90917 3.90608 9.37827 4.38662L10.4841 5.51939C12.4055 4.21788 14.5624 3.30258 16.8164 2.83213V1.23047C16.8164 0.550922 17.3542 0 18.0176 0H22.8223C23.4856 0 24.0234 0.550922 24.0234 1.23047V10.4772C22.8958 10.0675 21.683 9.84375 20.4199 9.84375C14.459 9.84375 9.60938 14.8116 9.60938 20.918C9.60938 27.0243 14.459 31.9922 20.4199 31.9922C21.683 31.9922 22.8958 31.7684 24.0234 31.3587V40.6055C24.0234 41.285 23.4856 41.8359 22.8223 41.8359V41.8359Z" fill="#1E1B1B"/>
</svg>
